<svg width="25" height="24" viewBox="0 0 25 24" fill="none" xmlns="http://www.w3.org/2000/svg">
<path fill-rule="evenodd" clip-rule="evenodd" d="M3.34351 11.5C3.34351 11.2239 3.56736 11 3.84351 11L19.8435 11C20.1196 11 20.3435 11.2239 20.3435 11.5C20.3435 11.7761 20.1196 12 19.8435 12L3.84351 12C3.56736 12 3.34351 11.7761 3.34351 11.5Z" fill="#333333"/>
<path fill-rule="evenodd" clip-rule="evenodd" d="M15.99 7.64645C16.1852 7.45118 16.5018 7.45118 16.6971 7.64645L20.5506 11.5L16.6971 15.3536C16.5018 15.5488 16.1852 15.5488 15.99 15.3536C15.7947 15.1583 15.7947 14.8417 15.99 14.6464L19.1364 11.5L15.99 8.35355C15.7947 8.15829 15.7947 7.84171 15.99 7.64645Z" fill="#333333"/>
</svg>
