<svg width="19" height="31" viewBox="0 0 19 31" fill="none" xmlns="http://www.w3.org/2000/svg">
<path d="M14.2922 25.5L15.8038 28.9881C16.0832 29.631 16.8524 29.9351 17.5234 29.668C18.1956 29.4036 18.5144 28.6674 18.2358 28.0241L16.7246 24.5371L14.2922 25.5Z" fill="white" stroke="black" stroke-width="0.5" stroke-miterlimit="10" stroke-linecap="round" stroke-linejoin="round"/>
<path d="M15.3008 27.8252L17.7328 26.8623L15.3008 27.8252Z" fill="white" stroke="black" stroke-width="0.5" stroke-miterlimit="10" stroke-linecap="round" stroke-linejoin="round"/>
<path d="M12.9746 11.0672C12.9746 12.9208 11.4035 14.4231 9.4664 14.4231C7.52726 14.4231 5.95581 12.9208 5.95581 11.0672C5.95581 9.21393 7.52726 7.7124 9.4664 7.7124C11.4031 7.7124 12.9746 9.21393 12.9746 11.0672Z" fill="white" stroke="black" stroke-width="0.5" stroke-miterlimit="10" stroke-linecap="round" stroke-linejoin="round"/>
<path d="M11.2194 11.0671C11.2194 11.9944 10.4344 12.7458 9.46586 12.7458C8.49613 12.7458 7.70923 11.9944 7.70923 11.0671C7.70923 10.1405 8.49613 9.38916 9.46586 9.38916C10.4344 9.38874 11.2194 10.1405 11.2194 11.0671Z" fill="white" stroke="black" stroke-width="0.5" stroke-miterlimit="10" stroke-linecap="round" stroke-linejoin="round"/>
<path d="M7.00443 13.4592L2.20346 24.5377L1 29.5093L1.81056 29.8303L4.63624 25.5006L5.30851 23.9511C4.784 22.7397 5.38492 21.3507 6.65179 20.8499L9.43566 14.4221C8.4888 14.4146 7.63217 14.0489 7.00443 13.4592Z" fill="white" stroke="black" stroke-width="0.5" stroke-miterlimit="10" stroke-linecap="round" stroke-linejoin="round"/>
<path d="M11.9256 13.4583C11.2975 14.0487 10.44 14.4144 9.49316 14.4215L13.6228 23.949L16.054 22.9866L11.9256 13.4583Z" fill="white" stroke="black" stroke-width="0.5" stroke-miterlimit="10" stroke-linecap="round" stroke-linejoin="round"/>
<path d="M10.7813 6.03422V2.25865C10.7809 1.56284 10.1898 1 9.46522 1C8.73821 1 8.14912 1.56208 8.14868 2.25865L8.14912 6.03422H10.7813Z" fill="white" stroke="black" stroke-width="0.5" stroke-miterlimit="10" stroke-linecap="round" stroke-linejoin="round"/>
<path d="M9.4662 7.71212C9.69046 7.71212 9.91031 7.73366 10.1231 7.77221V6.03418H8.80737V7.77221C9.02098 7.73328 9.23966 7.71212 9.4662 7.71212Z" fill="white" stroke="black" stroke-width="0.5" stroke-miterlimit="10" stroke-linecap="round" stroke-linejoin="round"/>
</svg>
